PathFileType	4	(X/Y/Z)	 s08c0203.trc
DataRate	CameraRate	NumFrames	NumMarkers	Units	OrigDataRate	OrigDataStartFrame	OrigNumFrames
200	200	4	50	mm	200	1251	2000
Frame#	Time	racr			lacr			c7			jug			rlel			rdr			llel			ldr			s2			lic			ric			lasi			rasi			rpsi			lpsi			rgt			lgt			rth1			rth2			rth3			rth4			rlfc			rmfc			rsh1			rsh2			rsh3			rsh4			rlmal			rmmal			rcal			rtoe			rmt5			lth1			lth2			lth4			lth3			llfc			lmfc			llmal			lmmal			lcal			lmt5			lsh1			lsh2			lsh3			lsh4			ltoe			SBIKE			LBIKE			RBIKE			
		X1	Y1	Z1	X2	Y2	Z2	X3	Y3	Z3	X4	Y4	Z4	X5	Y5	Z5	X6	Y6	Z6	X7	Y7	Z7	X8	Y8	Z8	X9	Y9	Z9	X10	Y10	Z10	X11	Y11	Z11	X12	Y12	Z12	X13	Y13	Z13	X14	Y14	Z14	X15	Y15	Z15	X16	Y16	Z16	X17	Y17	Z17	X18	Y18	Z18	X19	Y19	Z19	X20	Y20	Z20	X21	Y21	Z21	X22	Y22	Z22	X23	Y23	Z23	X24	Y24	Z24	X25	Y25	Z25	X26	Y26	Z26	X27	Y27	Z27	X28	Y28	Z28	X29	Y29	Z29	X30	Y30	Z30	X31	Y31	Z31	X32	Y32	Z32	X33	Y33	Z33	X34	Y34	Z34	X35	Y35	Z35	X36	Y36	Z36	X37	Y37	Z37	X38	Y38	Z38	X39	Y39	Z39	X40	Y40	Z40	X41	Y41	Z41	X42	Y42	Z42	X43	Y43	Z43	X44	Y44	Z44	X45	Y45	Z45	X46	Y46	Z46	X47	Y47	Z47	X48	Y48	Z48	X49	Y49	Z49	X50	Y50	Z50	
1251	6.2550	552.068118	1339.359718	-72.446551	517.981982	1292.847674	-404.780476	516.885097	1393.691104	-238.880490	467.310502	1241.197846	-212.519273	559.775058	1115.770249	80.402683	740.448235	920.691880	-45.596856	510.849366	1034.487094	-515.258396	731.877039	914.631403	-399.831049	-41.233237	1197.957256	-171.135219	97.165009	1214.697171	-330.065695	132.152705	1189.877510	-11.474000	129.292022	1169.335225	-289.226633	149.169486	1126.202319	-52.521128	-2.901782	1228.984797	-113.486858	-14.574779	1246.888425	-205.597091	42.422468	1059.585280	-4.975644	77.997620	1126.205391	-372.612311	130.306460	908.199338	-6.272954	188.193482	840.785647	-14.803583	203.399324	756.641183	-30.520529	220.524319	857.273199	-22.983749	256.697426	652.100052	-52.480585	224.414930	638.551349	-157.279131	225.517148	522.789171	-18.805145	251.113900	438.940736	-38.572633	231.740178	354.779992	-44.616911	277.843402	445.027716	-67.626804	232.184423	230.764290	-54.500386	240.372321	257.443882	-143.559054	163.148332	183.209639	-100.235244	456.686530	244.909524	-102.301574	377.388420	191.373649	-36.029056	183.105055	1043.571343	-373.924504	265.777727	1016.614456	-363.748713	281.991244	1042.278826	-342.224706	326.310244	951.183369	-367.439289	396.845434	844.782816	-348.871824	391.588569	797.398410	-277.323260	79.144558	577.051398	-384.065148	111.455245	572.853935	-301.224363	4.766942	579.519616	-347.629920	167.614172	442.647948	-414.163343	305.884896	761.296451	-379.829021	253.046575	693.759806	-371.890161	173.361581	657.428836	-378.510627	270.236348	673.702434	-343.440048	253.478306	431.500975	-344.134750	-209.858300	917.692949	-228.704873	-7.196863	84.714580	-426.521660	-10.239063	80.140261	-28.163508	
1252	6.2600	553.035698	1341.583562	-75.294033	517.164648	1293.288553	-407.810513	516.724712	1394.600204	-242.432016	467.877351	1242.125975	-214.633740	561.890188	1118.087068	77.566815	740.328993	920.031208	-46.192956	510.407810	1032.980073	-515.338763	731.892999	915.180193	-399.838397	-40.016739	1198.206803	-168.357947	96.039763	1216.164666	-328.594504	135.636254	1188.922067	-10.417872	128.744650	1170.615932	-288.238109	150.775510	1124.789080	-51.662849	-1.019765	1229.080459	-110.776749	-14.144530	1247.704524	-202.200513	42.584027	1059.464608	-3.933057	77.890971	1130.192430	-371.114611	126.538837	906.322709	-4.134122	182.602326	837.424350	-12.362443	195.772157	752.898158	-27.369610	215.525659	853.192561	-20.595397	246.459304	647.101394	-50.037572	225.740900	640.773542	-166.907220	215.478718	517.862751	-16.277587	241.507460	434.066254	-36.797323	222.770274	349.810466	-43.315895	268.433229	440.357198	-65.572585	224.566833	225.792205	-53.969262	232.774321	253.060363	-142.855763	155.364893	179.386751	-100.033186	449.919511	236.399819	-102.300890	369.714059	184.075234	-35.990667	183.585654	1048.809493	-372.966676	266.723413	1023.425723	-362.972081	282.363652	1048.950927	-340.714622	328.517216	959.592519	-368.144320	401.480434	853.778856	-348.646249	395.015840	808.923621	-266.337208	85.701119	583.520704	-383.792346	118.047989	579.653287	-300.962952	11.407026	585.011593	-347.447077	175.521408	450.307022	-414.048715	311.175880	769.714955	-379.641286	258.882572	701.647504	-371.931503	179.367652	664.705751	-378.429550	276.187661	680.977519	-344.120259	261.516927	440.090578	-343.844582	-210.208681	918.138901	-229.252771	-7.189980	84.804089	-426.486028	-10.228251	80.148640	-28.136880	
1253	6.2650	554.035568	1343.909256	-78.347793	516.312363	1293.841517	-410.467282	516.464137	1395.511084	-245.866754	468.596102	1242.990191	-216.648964	563.954573	1120.403564	74.831986	740.068391	919.485921	-46.904659	509.849921	1031.853169	-515.611931	731.732925	915.519186	-399.716482	-39.082928	1199.075499	-165.774347	95.218036	1217.689820	-327.722116	138.743209	1187.924495	-9.805711	127.979556	1171.410245	-286.697120	151.847417	1123.595559	-51.121038	0.785187	1228.972774	-109.171139	-13.705090	1248.575597	-199.156218	42.682962	1059.470360	-2.783871	77.865876	1134.013635	-369.678578	122.709792	904.857154	-1.974335	177.127092	834.629102	-9.736021	187.907594	749.435077	-24.365334	210.463846	849.503771	-18.247234	236.254984	642.707870	-47.693663	205.708856	629.257124	-153.491798	205.225335	513.392574	-14.318481	231.874403	429.907256	-34.974509	213.537906	345.538473	-42.122671	259.049668	436.451305	-63.506905	216.677978	221.413396	-53.486959	225.467969	248.983585	-142.135857	147.176181	176.417714	-99.950072	442.697366	228.442780	-102.149522	361.622968	177.395538	-35.945403	183.896058	1054.188251	-371.569835	267.621237	1030.254656	-362.234141	282.778334	1055.895908	-339.503140	330.463654	968.142490	-369.127972	405.770734	862.492071	-349.379231	396.752623	824.035103	-244.401617	92.919117	589.497340	-383.734601	124.878870	585.958616	-300.948177	18.094009	590.344530	-347.294047	184.026648	457.367948	-414.168180	316.630053	777.947471	-380.569992	264.904368	709.209492	-372.320715	185.743683	671.880412	-379.263922	282.621119	688.445565	-344.643960	269.995819	448.043286	-343.664974	-210.246440	918.260240	-228.863225	-7.195589	84.882389	-426.442171	-10.222458	80.142763	-28.123577	
1254	6.2700	555.041259	1346.177639	-81.345328	515.484967	1294.504803	-413.250523	516.173850	1396.308551	-249.045693	469.519828	1243.676504	-218.468527	565.881629	1122.686158	72.368692	739.888824	919.176893	-47.281897	509.278742	1030.990344	-516.003436	731.702394	916.018194	-399.958780	-38.658194	1199.556835	-163.393167	94.623136	1219.068641	-327.067271	141.330343	1187.079252	-9.608657	127.602292	1172.360893	-286.153664	153.123052	1122.623937	-50.558969	2.386596	1229.784709	-105.888072	-13.264482	1249.457647	-196.414681	42.677884	1059.546461	-1.655345	77.960333	1137.660116	-368.182729	118.890458	903.501833	0.342137	172.006939	832.034799	-7.006595	180.429412	746.509256	-21.337375	205.149472	846.181101	-15.855744	226.320638	638.855682	-45.552783	197.087913	625.531327	-151.600614	194.802243	509.649123	-12.910653	222.196524	426.277557	-33.349989	204.183692	341.910076	-41.144449	249.614480	432.832510	-61.670457	208.558185	217.784541	-53.206267	217.998325	245.609362	-141.372094	138.708682	174.001385	-99.817082	435.079056	220.838453	-102.005451	353.102311	171.277199	-35.833614	184.019999	1059.578782	-369.825350	268.334120	1037.417266	-361.638233	283.221400	1063.380264	-338.898488	332.628314	976.224849	-368.912503	409.824427	871.144341	-350.470299	402.381694	831.399247	-247.246738	100.370099	594.545811	-383.977302	133.056809	591.277067	-299.952235	25.327335	594.672565	-347.758423	192.873572	463.766528	-414.103378	322.266868	785.603257	-381.580962	271.243261	716.382372	-372.976116	192.422343	678.333621	-379.771167	289.262212	695.709942	-345.666150	278.919263	455.499154	-343.806173	-210.482942	918.347923	-228.607367	-7.208025	84.955394	-426.422803	-10.228892	79.997002	-28.247976	
